<mxfile host="Electron" agent="Mozilla/5.0 (Windows NT 10.0; Win64; x64) AppleWebKit/537.36 (KHTML, like Gecko) draw.io/24.7.17 Chrome/128.0.6613.36 Electron/32.0.1 Safari/537.36" version="24.7.17">
  <diagram name="Page-1" id="O9w2qhzG3aQ3dqctf0j6">
    <mxGraphModel dx="1323" dy="1584" grid="1" gridSize="10" guides="1" tooltips="1" connect="1" arrows="1" fold="1" page="1" pageScale="1" pageWidth="1100" pageHeight="850" math="0" shadow="0">
      <root>
        <mxCell id="0" />
        <mxCell id="1" parent="0" />
        <mxCell id="U-Sf9MAT8RMJsGlsqO_k-117" style="edgeStyle=orthogonalEdgeStyle;rounded=0;orthogonalLoop=1;jettySize=auto;html=1;exitX=0.5;exitY=0;exitDx=0;exitDy=0;endArrow=diamondThin;endFill=1;" edge="1" parent="1" source="brpPsIEIQ0xfQox0xX0i-1" target="U-Sf9MAT8RMJsGlsqO_k-124">
          <mxGeometry relative="1" as="geometry">
            <mxPoint x="400" y="566" as="targetPoint" />
            <Array as="points" />
          </mxGeometry>
        </mxCell>
        <mxCell id="U-Sf9MAT8RMJsGlsqO_k-200" style="edgeStyle=orthogonalEdgeStyle;rounded=0;orthogonalLoop=1;jettySize=auto;html=1;endArrow=diamondThin;endFill=0;" edge="1" parent="1" source="brpPsIEIQ0xfQox0xX0i-1" target="U-Sf9MAT8RMJsGlsqO_k-1">
          <mxGeometry relative="1" as="geometry" />
        </mxCell>
        <mxCell id="brpPsIEIQ0xfQox0xX0i-1" value="Item" style="swimlane;fontStyle=1;align=center;verticalAlign=top;childLayout=stackLayout;horizontal=1;startSize=26;horizontalStack=0;resizeParent=1;resizeParentMax=0;resizeLast=0;collapsible=1;marginBottom=0;whiteSpace=wrap;html=1;" parent="1" vertex="1">
          <mxGeometry x="320" y="570" width="160" height="116" as="geometry">
            <mxRectangle x="320" y="360" width="100" height="30" as="alternateBounds" />
          </mxGeometry>
        </mxCell>
        <mxCell id="U-Sf9MAT8RMJsGlsqO_k-145" value="+ ingredients: Ingredient[]" style="text;strokeColor=none;fillColor=none;align=left;verticalAlign=top;spacingLeft=4;spacingRight=4;overflow=hidden;rotatable=0;points=[[0,0.5],[1,0.5]];portConstraint=eastwest;whiteSpace=wrap;html=1;" vertex="1" parent="brpPsIEIQ0xfQox0xX0i-1">
          <mxGeometry y="26" width="160" height="26" as="geometry" />
        </mxCell>
        <mxCell id="U-Sf9MAT8RMJsGlsqO_k-144" value="+ calories: unsigned" style="text;strokeColor=none;fillColor=none;align=left;verticalAlign=top;spacingLeft=4;spacingRight=4;overflow=hidden;rotatable=0;points=[[0,0.5],[1,0.5]];portConstraint=eastwest;whiteSpace=wrap;html=1;" vertex="1" parent="brpPsIEIQ0xfQox0xX0i-1">
          <mxGeometry y="52" width="160" height="26" as="geometry" />
        </mxCell>
        <mxCell id="U-Sf9MAT8RMJsGlsqO_k-143" value="+ name: String" style="text;strokeColor=none;fillColor=none;align=left;verticalAlign=top;spacingLeft=4;spacingRight=4;overflow=hidden;rotatable=0;points=[[0,0.5],[1,0.5]];portConstraint=eastwest;whiteSpace=wrap;html=1;" vertex="1" parent="brpPsIEIQ0xfQox0xX0i-1">
          <mxGeometry y="78" width="160" height="30" as="geometry" />
        </mxCell>
        <mxCell id="brpPsIEIQ0xfQox0xX0i-3" value="" style="line;strokeWidth=1;fillColor=none;align=left;verticalAlign=middle;spacingTop=-1;spacingLeft=3;spacingRight=3;rotatable=0;labelPosition=right;points=[];portConstraint=eastwest;strokeColor=inherit;" parent="brpPsIEIQ0xfQox0xX0i-1" vertex="1">
          <mxGeometry y="108" width="160" height="8" as="geometry" />
        </mxCell>
        <mxCell id="U-Sf9MAT8RMJsGlsqO_k-1" value="Order" style="swimlane;fontStyle=1;align=center;verticalAlign=top;childLayout=stackLayout;horizontal=1;startSize=26;horizontalStack=0;resizeParent=1;resizeParentMax=0;resizeLast=0;collapsible=1;marginBottom=0;whiteSpace=wrap;html=1;" vertex="1" parent="1">
          <mxGeometry x="565" y="120" width="160" height="86" as="geometry" />
        </mxCell>
        <mxCell id="U-Sf9MAT8RMJsGlsqO_k-29" value="+ itemsOnOrder: Item[]" style="text;strokeColor=none;fillColor=none;align=left;verticalAlign=top;spacingLeft=4;spacingRight=4;overflow=hidden;rotatable=0;points=[[0,0.5],[1,0.5]];portConstraint=eastwest;whiteSpace=wrap;html=1;" vertex="1" parent="U-Sf9MAT8RMJsGlsqO_k-1">
          <mxGeometry y="26" width="160" height="26" as="geometry" />
        </mxCell>
        <mxCell id="U-Sf9MAT8RMJsGlsqO_k-118" value="+ from: Restaurant" style="text;strokeColor=none;fillColor=none;align=left;verticalAlign=top;spacingLeft=4;spacingRight=4;overflow=hidden;rotatable=0;points=[[0,0.5],[1,0.5]];portConstraint=eastwest;whiteSpace=wrap;html=1;" vertex="1" parent="U-Sf9MAT8RMJsGlsqO_k-1">
          <mxGeometry y="52" width="160" height="26" as="geometry" />
        </mxCell>
        <mxCell id="U-Sf9MAT8RMJsGlsqO_k-3" value="" style="line;strokeWidth=1;fillColor=none;align=left;verticalAlign=middle;spacingTop=-1;spacingLeft=3;spacingRight=3;rotatable=0;labelPosition=right;points=[];portConstraint=eastwest;strokeColor=inherit;" vertex="1" parent="U-Sf9MAT8RMJsGlsqO_k-1">
          <mxGeometry y="78" width="160" height="8" as="geometry" />
        </mxCell>
        <mxCell id="U-Sf9MAT8RMJsGlsqO_k-183" style="edgeStyle=orthogonalEdgeStyle;rounded=0;orthogonalLoop=1;jettySize=auto;html=1;endArrow=block;endFill=0;" edge="1" parent="1" source="U-Sf9MAT8RMJsGlsqO_k-5" target="U-Sf9MAT8RMJsGlsqO_k-53">
          <mxGeometry relative="1" as="geometry">
            <Array as="points">
              <mxPoint x="960" y="310" />
              <mxPoint x="960" y="-440" />
              <mxPoint x="720" y="-440" />
            </Array>
          </mxGeometry>
        </mxCell>
        <mxCell id="U-Sf9MAT8RMJsGlsqO_k-5" value="Restaurant manager" style="swimlane;fontStyle=1;align=center;verticalAlign=top;childLayout=stackLayout;horizontal=1;startSize=26;horizontalStack=0;resizeParent=1;resizeParentMax=0;resizeLast=0;collapsible=1;marginBottom=0;whiteSpace=wrap;html=1;" vertex="1" parent="1">
          <mxGeometry x="720" y="299" width="160" height="182" as="geometry">
            <mxRectangle x="120" y="360" width="150" height="30" as="alternateBounds" />
          </mxGeometry>
        </mxCell>
        <mxCell id="U-Sf9MAT8RMJsGlsqO_k-6" value="- username: String" style="text;strokeColor=none;fillColor=none;align=left;verticalAlign=top;spacingLeft=4;spacingRight=4;overflow=hidden;rotatable=0;points=[[0,0.5],[1,0.5]];portConstraint=eastwest;whiteSpace=wrap;html=1;" vertex="1" parent="U-Sf9MAT8RMJsGlsqO_k-5">
          <mxGeometry y="26" width="160" height="24" as="geometry" />
        </mxCell>
        <mxCell id="U-Sf9MAT8RMJsGlsqO_k-51" value="- password: String" style="text;strokeColor=none;fillColor=none;align=left;verticalAlign=top;spacingLeft=4;spacingRight=4;overflow=hidden;rotatable=0;points=[[0,0.5],[1,0.5]];portConstraint=eastwest;whiteSpace=wrap;html=1;" vertex="1" parent="U-Sf9MAT8RMJsGlsqO_k-5">
          <mxGeometry y="50" width="160" height="26" as="geometry" />
        </mxCell>
        <mxCell id="U-Sf9MAT8RMJsGlsqO_k-7" value="" style="line;strokeWidth=1;fillColor=none;align=left;verticalAlign=middle;spacingTop=-1;spacingLeft=3;spacingRight=3;rotatable=0;labelPosition=right;points=[];portConstraint=eastwest;strokeColor=inherit;" vertex="1" parent="U-Sf9MAT8RMJsGlsqO_k-5">
          <mxGeometry y="76" width="160" height="8" as="geometry" />
        </mxCell>
        <mxCell id="U-Sf9MAT8RMJsGlsqO_k-8" value="-&lt;span style=&quot;background-color: initial;&quot;&gt;&amp;nbsp;viewItems(): void&lt;/span&gt;" style="text;strokeColor=none;fillColor=none;align=left;verticalAlign=top;spacingLeft=4;spacingRight=4;overflow=hidden;rotatable=0;points=[[0,0.5],[1,0.5]];portConstraint=eastwest;whiteSpace=wrap;html=1;" vertex="1" parent="U-Sf9MAT8RMJsGlsqO_k-5">
          <mxGeometry y="84" width="160" height="24" as="geometry" />
        </mxCell>
        <mxCell id="U-Sf9MAT8RMJsGlsqO_k-149" value="- add&lt;span style=&quot;color: rgba(0, 0, 0, 0); font-family: monospace; font-size: 0px; text-wrap: nowrap;&quot;&gt;%3CmxGraphModel%3E%3Croot%3E%3CmxCell%20id%3D%220%22%2F%3E%3CmxCell%20id%3D%221%22%20parent%3D%220%22%2F%3E%3CmxCell%20id%3D%222%22%20value%3D%22%2B%20viewItems()%3A%20void%22%20style%3D%22text%3BstrokeColor%3Dnone%3BfillColor%3Dnone%3Balign%3Dleft%3BverticalAlign%3Dtop%3BspacingLeft%3D4%3BspacingRight%3D4%3Boverflow%3Dhidden%3Brotatable%3D0%3Bpoints%3D%5B%5B0%2C0.5%5D%2C%5B1%2C0.5%5D%5D%3BportConstraint%3Deastwest%3BwhiteSpace%3Dwrap%3Bhtml%3D1%3B%22%20vertex%3D%221%22%20parent%3D%221%22%3E%3CmxGeometry%20x%3D%22720%22%20y%3D%22469%22%20width%3D%22160%22%20height%3D%2224%22%20as%3D%22geometry%22%2F%3E%3C%2FmxCell%3E%3C%2Froot%3E%3C%2FmxGraphModel%3E&lt;/span&gt;&lt;span style=&quot;color: rgba(0, 0, 0, 0); font-family: monospace; font-size: 0px; text-wrap: nowrap;&quot;&gt;%3CmxGraphModel%3E%3Croot%3E%3CmxCell%20id%3D%220%22%2F%3E%3CmxCell%20id%3D%221%22%20parent%3D%220%22%2F%3E%3CmxCell%20id%3D%222%22%20value%3D%22%2B%20viewItems()%3A%20void%22%20style%3D%22text%3BstrokeColor%3Dnone%3BfillColor%3Dnone%3Balign%3Dleft%3BverticalAlign%3Dtop%3BspacingLeft%3D4%3BspacingRight%3D4%3Boverflow%3Dhidden%3Brotatable%3D0%3Bpoints%3D%5B%5B0%2C0.5%5D%2C%5B1%2C0.5%5D%5D%3BportConstraint%3Deastwest%3BwhiteSpace%3Dwrap%3Bhtml%3D1%3B%22%20vertex%3D%221%22%20parent%3D%221%22%3E%3CmxGeometry%20x%3D%22720%22%20y%3D%22469%22%20width%3D%22160%22%20height%3D%2224%22%20as%3D%22geometry%22%2F%3E%3C%2FmxCell%3E%3C%2Froot%3E%3C%2FmxGraphModel%3E&lt;/span&gt;&lt;span style=&quot;color: rgba(0, 0, 0, 0); font-family: monospace; font-size: 0px; text-wrap: nowrap;&quot;&gt;%3CmxGraphModel%3E%3Croot%3E%3CmxCell%20id%3D%220%22%2F%3E%3CmxCell%20id%3D%221%22%20parent%3D%220%22%2F%3E%3CmxCell%20id%3D%222%22%20value%3D%22%2B%20viewItems()%3A%20void%22%20style%3D%22text%3BstrokeColor%3Dnone%3BfillColor%3Dnone%3Balign%3Dleft%3BverticalAlign%3Dtop%3BspacingLeft%3D4%3BspacingRight%3D4%3Boverflow%3Dhidden%3Brotatable%3D0%3Bpoints%3D%5B%5B0%2C0.5%5D%2C%5B1%2C0.5%5D%5D%3BportConstraint%3Deastwest%3BwhiteSpace%3Dwrap%3Bhtml%3D1%3B%22%20vertex%3D%221%22%20parent%3D%221%22%3E%3CmxGeometry%20x%3D%22720%22%20y%3D%22469%22%20width%3D%22160%22%20height%3D%2224%22%20as%3D%22geometry%22%2F%3E%3C%2FmxCell%3E%3C%2Froot%3E%3C%2FmxGraphModel%3E&lt;/span&gt;&lt;span style=&quot;color: rgba(0, 0, 0, 0); font-family: monospace; font-size: 0px; text-wrap: nowrap;&quot;&gt;%3CmxGraphModel%3E%3Croot%3E%3CmxCell%20id%3D%220%22%2F%3E%3CmxCell%20id%3D%221%22%20parent%3D%220%22%2F%3E%3CmxCell%20id%3D%222%22%20value%3D%22%2B%20viewItems()%3A%20void%22%20style%3D%22text%3BstrokeColor%3Dnone%3BfillColor%3Dnone%3Balign%3Dleft%3BverticalAlign%3Dtop%3BspacingLeft%3D4%3BspacingRight%3D4%3Boverflow%3Dhidden%3Brotatable%3D0%3Bpoints%3D%5B%5B0%2C0.5%5D%2C%5B1%2C0.5%5D%5D%3BportConstraint%3Deastwest%3BwhiteSpace%3Dwrap%3Bhtml%3D1%3B%22%20vertex%3D%221%22%20parent%3D%221%22%3E%3CmxGeometry%20x%3D%22720%22%20y%3D%22469%22%20width%3D%22160%22%20height%3D%2224%22%20as%3D%22geometry%22%2F%3E%3C%2FmxCell%3E%3C%2Froot%3E%3C%2FmxGraphModel%3E&lt;/span&gt;&lt;span style=&quot;color: rgba(0, 0, 0, 0); font-family: monospace; font-size: 0px; text-wrap: nowrap;&quot;&gt;%3CmxGraphModel%3E%3Croot%3E%3CmxCell%20id%3D%220%22%2F%3E%3CmxCell%20id%3D%221%22%20parent%3D%220%22%2F%3E%3CmxCell%20id%3D%222%22%20value%3D%22%2B%20viewItems()%3A%20void%22%20style%3D%22text%3BstrokeColor%3Dnone%3BfillColor%3Dnone%3Balign%3Dleft%3BverticalAlign%3Dtop%3BspacingLeft%3D4%3BspacingRight%3D4%3Boverflow%3Dhidden%3Brotatable%3D0%3Bpoints%3D%5B%5B0%2C0.5%5D%2C%5B1%2C0.5%5D%5D%3BportConstraint%3Deastwest%3BwhiteSpace%3Dwrap%3Bhtml%3D1%3B%22%20vertex%3D%221%22%20parent%3D%221%22%3E%3CmxGeometry%20x%3D%22720%22%20y%3D%22469%22%20width%3D%22160%22%20height%3D%2224%22%20as%3D%22geometry%22%2F%3E%3C%2FmxCell%3E%3C%2Froot%3E%3C%2FmxGraphModel%3E&lt;/span&gt;&lt;span style=&quot;color: rgba(0, 0, 0, 0); font-family: monospace; font-size: 0px; text-wrap: nowrap;&quot;&gt;%3CmxGraphModel%3E%3Croot%3E%3CmxCell%20id%3D%220%22%2F%3E%3CmxCell%20id%3D%221%22%20parent%3D%220%22%2F%3E%3CmxCell%20id%3D%222%22%20value%3D%22%2B%20viewItems()%3A%20void%22%20style%3D%22text%3BstrokeColor%3Dnone%3BfillColor%3Dnone%3Balign%3Dleft%3BverticalAlign%3Dtop%3BspacingLeft%3D4%3BspacingRight%3D4%3Boverflow%3Dhidden%3Brotatable%3D0%3Bpoints%3D%5B%5B0%2C0.5%5D%2C%5B1%2C0.5%5D%5D%3BportConstraint%3Deastwest%3BwhiteSpace%3Dwrap%3Bhtml%3D1%3B%22%20vertex%3D%221%22%20parent%3D%221%22%3E%3CmxGeometry%20x%3D%22720%22%20y%3D%22469%22%20width%3D%22160%22%20height%3D%2224%22%20as%3D%22geometry%22%2F%3E%3C%2FmxCell%3E%3C%2Froot%3E%3C%2FmxGraphModel%3E&lt;/span&gt;I&lt;span style=&quot;color: rgba(0, 0, 0, 0); font-family: monospace; font-size: 0px; text-wrap: nowrap;&quot;&gt;%3CmxGraphModel%3E%3Croot%3E%3CmxCell%20id%3D%220%22%2F%3E%3CmxCell%20id%3D%221%22%20parent%3D%220%22%2F%3E%3CmxCell%20id%3D%222%22%20value%3D%22%2B%20viewItems()%3A%20void%22%20style%3D%22text%3BstrokeColor%3Dnone%3BfillColor%3Dnone%3Balign%3Dleft%3BverticalAlign%3Dtop%3BspacingLeft%3D4%3BspacingRight%3D4%3Boverflow%3Dhidden%3Brotatable%3D0%3Bpoints%3D%5B%5B0%2C0.5%5D%2C%5B1%2C0.5%5D%5D%3BportConstraint%3Deastwest%3BwhiteSpace%3Dwrap%3Bhtml%3D1%3B%22%20vertex%3D%221%22%20parent%3D%221%22%3E%3CmxGeometry%20x%3D%22720%22%20y%3D%22469%22%20width%3D%22160%22%20height%3D%2224%22%20as%3D%22geometry%22%2F%3E%3C%2FmxCell%3E%3C%2Froot%3E%3C%2FmxGraphModel%3E&lt;/span&gt;tems(): void" style="text;strokeColor=none;fillColor=none;align=left;verticalAlign=top;spacingLeft=4;spacingRight=4;overflow=hidden;rotatable=0;points=[[0,0.5],[1,0.5]];portConstraint=eastwest;whiteSpace=wrap;html=1;" vertex="1" parent="U-Sf9MAT8RMJsGlsqO_k-5">
          <mxGeometry y="108" width="160" height="24" as="geometry" />
        </mxCell>
        <mxCell id="U-Sf9MAT8RMJsGlsqO_k-150" value="- remove&lt;span style=&quot;color: rgba(0, 0, 0, 0); font-family: monospace; font-size: 0px; text-wrap: nowrap;&quot;&gt;3CmxGraphModel%3E%3Croot%3E%3CmxCell%20id%3D%220%22%2F%3E%3CmxCell%20id%3D%221%22%20parent%3D%220%22%2F%3E%3CmxCell%20id%3D%222%22%20value%3D%22%2B%20viewItems()%3A%20void%22%20style%3D%22text%3BstrokeColor%3Dnone%3BfillColor%3Dnone%3Balign%3Dleft%3BverticalAlign%3Dtop%3BspacingLeft%3D4%3BspacingRight%3D4%3Boverflow%3Dhidden%3Brotatable%3D0%3Bpoints%3D%5B%5B0%2C0.5%5D%2C%5B1%2C0.5%5D%5D%3BportConstraint%3Deastwest%3BwhiteSpace%3Dwrap%3Bhtml%3D1%3B%22%20vertex%3D%221%22%20parent%3D%221%22%3E%3CmxGeometry%20x%3D%22720%22%20y%3D%22469%22%20width%3D%22160%22%20height%3D%2224%22%20as%3D%22geometry%22%2F%3E%3C%2FmxCell%3E%3C%2Froot%3E%3C%2FmxGraphModel%3E&lt;/span&gt;&lt;span style=&quot;color: rgba(0, 0, 0, 0); font-family: monospace; font-size: 0px; text-wrap: nowrap;&quot;&gt;%3CmxGraphModel%3E%3Croot%3E%3CmxCell%20id%3D%220%22%2F%3E%3CmxCell%20id%3D%221%22%20parent%3D%220%22%2F%3E%3CmxCell%20id%3D%222%22%20value%3D%22%2B%20viewItems()%3A%20void%22%20style%3D%22text%3BstrokeColor%3Dnone%3BfillColor%3Dnone%3Balign%3Dleft%3BverticalAlign%3Dtop%3BspacingLeft%3D4%3BspacingRight%3D4%3Boverflow%3Dhidden%3Brotatable%3D0%3Bpoints%3D%5B%5B0%2C0.5%5D%2C%5B1%2C0.5%5D%5D%3BportConstraint%3Deastwest%3BwhiteSpace%3Dwrap%3Bhtml%3D1%3B%22%20vertex%3D%221%22%20parent%3D%221%22%3E%3CmxGeometry%20x%3D%22720%22%20y%3D%22469%22%20width%3D%22160%22%20height%3D%2224%22%20as%3D%22geometry%22%2F%3E%3C%2FmxCell%3E%3C%2Froot%3E%3C%2FmxGraphModel%3E&lt;/span&gt;&lt;span style=&quot;color: rgba(0, 0, 0, 0); font-family: monospace; font-size: 0px; text-wrap: nowrap;&quot;&gt;%3CmxGraphModel%3E%3Croot%3E%3CmxCell%20id%3D%220%22%2F%3E%3CmxCell%20id%3D%221%22%20parent%3D%220%22%2F%3E%3CmxCell%20id%3D%222%22%20value%3D%22%2B%20viewItems()%3A%20void%22%20style%3D%22text%3BstrokeColor%3Dnone%3BfillColor%3Dnone%3Balign%3Dleft%3BverticalAlign%3Dtop%3BspacingLeft%3D4%3BspacingRight%3D4%3Boverflow%3Dhidden%3Brotatable%3D0%3Bpoints%3D%5B%5B0%2C0.5%5D%2C%5B1%2C0.5%5D%5D%3BportConstraint%3Deastwest%3BwhiteSpace%3Dwrap%3Bhtml%3D1%3B%22%20vertex%3D%221%22%20parent%3D%221%22%3E%3CmxGeometry%20x%3D%22720%22%20y%3D%22469%22%20width%3D%22160%22%20height%3D%2224%22%20as%3D%22geometry%22%2F%3E%3C%2FmxCell%3E%3C%2Froot%3E%3C%2FmxGraphModel%3E&lt;/span&gt;&lt;span style=&quot;color: rgba(0, 0, 0, 0); font-family: monospace; font-size: 0px; text-wrap: nowrap;&quot;&gt;%3CmxGraphModel%3E%3Croot%3E%3CmxCell%20id%3D%220%22%2F%3E%3CmxCell%20id%3D%221%22%20parent%3D%220%22%2F%3E%3CmxCell%20id%3D%222%22%20value%3D%22%2B%20viewItems()%3A%20void%22%20style%3D%22text%3BstrokeColor%3Dnone%3BfillColor%3Dnone%3Balign%3Dleft%3BverticalAlign%3Dtop%3BspacingLeft%3D4%3BspacingRight%3D4%3Boverflow%3Dhidden%3Brotatable%3D0%3Bpoints%3D%5B%5B0%2C0.5%5D%2C%5B1%2C0.5%5D%5D%3BportConstraint%3Deastwest%3BwhiteSpace%3Dwrap%3Bhtml%3D1%3B%22%20vertex%3D%221%22%20parent%3D%221%22%3E%3CmxGeometry%20x%3D%22720%22%20y%3D%22469%22%20width%3D%22160%22%20height%3D%2224%22%20as%3D%22geometry%22%2F%3E%3C%2FmxCell%3E%3C%2Froot%3E%3C%2FmxGraphModel%3E&lt;/span&gt;&lt;span style=&quot;color: rgba(0, 0, 0, 0); font-family: monospace; font-size: 0px; text-wrap: nowrap;&quot;&gt;%3CmxGraphModel%3E%3Croot%3E%3CmxCell%20id%3D%220%22%2F%3E%3CmxCell%20id%3D%221%22%20parent%3D%220%22%2F%3E%3CmxCell%20id%3D%222%22%20value%3D%22%2B%20viewItems()%3A%20void%22%20style%3D%22text%3BstrokeColor%3Dnone%3BfillColor%3Dnone%3Balign%3Dleft%3BverticalAlign%3Dtop%3BspacingLeft%3D4%3BspacingRight%3D4%3Boverflow%3Dhidden%3Brotatable%3D0%3Bpoints%3D%5B%5B0%2C0.5%5D%2C%5B1%2C0.5%5D%5D%3BportConstraint%3Deastwest%3BwhiteSpace%3Dwrap%3Bhtml%3D1%3B%22%20vertex%3D%221%22%20parent%3D%221%22%3E%3CmxGeometry%20x%3D%22720%22%20y%3D%22469%22%20width%3D%22160%22%20height%3D%2224%22%20as%3D%22geometry%22%2F%3E%3C%2FmxCell%3E%3C%2Froot%3E%3C%2FmxGraphModel%3E&lt;/span&gt;&lt;span style=&quot;color: rgba(0, 0, 0, 0); font-family: monospace; font-size: 0px; text-wrap: nowrap;&quot;&gt;%3CmxGraphModel%3E%3Croot%3E%3CmxCell%20id%3D%220%22%2F%3E%3CmxCell%20id%3D%221%22%20parent%3D%220%22%2F%3E%3CmxCell%20id%3D%222%22%20value%3D%22%2B%20viewItems()%3A%20void%22%20style%3D%22text%3BstrokeColor%3Dnone%3BfillColor%3Dnone%3Balign%3Dleft%3BverticalAlign%3Dtop%3BspacingLeft%3D4%3BspacingRight%3D4%3Boverflow%3Dhidden%3Brotatable%3D0%3Bpoints%3D%5B%5B0%2C0.5%5D%2C%5B1%2C0.5%5D%5D%3BportConstraint%3Deastwest%3BwhiteSpace%3Dwrap%3Bhtml%3D1%3B%22%20vertex%3D%221%22%20parent%3D%221%22%3E%3CmxGeometry%20x%3D%22720%22%20y%3D%22469%22%20width%3D%22160%22%20height%3D%2224%22%20as%3D%22geometry%22%2F%3E%3C%2FmxCell%3E%3C%2Froot%3E%3C%2FmxGraphModel%3E&lt;/span&gt;I&lt;span style=&quot;color: rgba(0, 0, 0, 0); font-family: monospace; font-size: 0px; text-wrap: nowrap;&quot;&gt;%3CmxGraphModel%3E%3Croot%3E%3CmxCell%20id%3D%220%22%2F%3E%3CmxCell%20id%3D%221%22%20parent%3D%220%22%2F%3E%3CmxCell%20id%3D%222%22%20value%3D%22%2B%20viewItems()%3A%20void%22%20style%3D%22text%3BstrokeColor%3Dnone%3BfillColor%3Dnone%3Balign%3Dleft%3BverticalAlign%3Dtop%3BspacingLeft%3D4%3BspacingRight%3D4%3Boverflow%3Dhidden%3Brotatable%3D0%3Bpoints%3D%5B%5B0%2C0.5%5D%2C%5B1%2C0.5%5D%5D%3BportConstraint%3Deastwest%3BwhiteSpace%3Dwrap%3Bhtml%3D1%3B%22%20vertex%3D%221%22%20parent%3D%221%22%3E%3CmxGeometry%20x%3D%22720%22%20y%3D%22469%22%20width%3D%22160%22%20height%3D%2224%22%20as%3D%22geometry%22%2F%3E%3C%2FmxCell%3E%3C%2Froot%3E%3C%2FmxGraphModel%3E&lt;/span&gt;tems(): void" style="text;strokeColor=none;fillColor=none;align=left;verticalAlign=top;spacingLeft=4;spacingRight=4;overflow=hidden;rotatable=0;points=[[0,0.5],[1,0.5]];portConstraint=eastwest;whiteSpace=wrap;html=1;" vertex="1" parent="U-Sf9MAT8RMJsGlsqO_k-5">
          <mxGeometry y="132" width="160" height="24" as="geometry" />
        </mxCell>
        <mxCell id="U-Sf9MAT8RMJsGlsqO_k-151" value="- addIngredients(): void" style="text;strokeColor=none;fillColor=none;align=left;verticalAlign=top;spacingLeft=4;spacingRight=4;overflow=hidden;rotatable=0;points=[[0,0.5],[1,0.5]];portConstraint=eastwest;whiteSpace=wrap;html=1;" vertex="1" parent="U-Sf9MAT8RMJsGlsqO_k-5">
          <mxGeometry y="156" width="160" height="26" as="geometry" />
        </mxCell>
        <mxCell id="U-Sf9MAT8RMJsGlsqO_k-128" style="edgeStyle=orthogonalEdgeStyle;rounded=0;orthogonalLoop=1;jettySize=auto;html=1;exitX=0.5;exitY=0;exitDx=0;exitDy=0;entryX=0.25;entryY=1;entryDx=0;entryDy=0;endArrow=block;endFill=0;" edge="1" parent="1" source="U-Sf9MAT8RMJsGlsqO_k-11" target="brpPsIEIQ0xfQox0xX0i-1">
          <mxGeometry relative="1" as="geometry" />
        </mxCell>
        <mxCell id="U-Sf9MAT8RMJsGlsqO_k-11" value="Food" style="swimlane;fontStyle=1;align=center;verticalAlign=top;childLayout=stackLayout;horizontal=1;startSize=26;horizontalStack=0;resizeParent=1;resizeParentMax=0;resizeLast=0;collapsible=1;marginBottom=0;whiteSpace=wrap;html=1;" vertex="1" parent="1">
          <mxGeometry x="120" y="790" width="160" height="116" as="geometry" />
        </mxCell>
        <mxCell id="U-Sf9MAT8RMJsGlsqO_k-133" value="+ name: String" style="text;strokeColor=none;fillColor=none;align=left;verticalAlign=top;spacingLeft=4;spacingRight=4;overflow=hidden;rotatable=0;points=[[0,0.5],[1,0.5]];portConstraint=eastwest;whiteSpace=wrap;html=1;" vertex="1" parent="U-Sf9MAT8RMJsGlsqO_k-11">
          <mxGeometry y="26" width="160" height="30" as="geometry" />
        </mxCell>
        <mxCell id="U-Sf9MAT8RMJsGlsqO_k-134" value="+ calories: unsigned" style="text;strokeColor=none;fillColor=none;align=left;verticalAlign=top;spacingLeft=4;spacingRight=4;overflow=hidden;rotatable=0;points=[[0,0.5],[1,0.5]];portConstraint=eastwest;whiteSpace=wrap;html=1;" vertex="1" parent="U-Sf9MAT8RMJsGlsqO_k-11">
          <mxGeometry y="56" width="160" height="26" as="geometry" />
        </mxCell>
        <mxCell id="U-Sf9MAT8RMJsGlsqO_k-137" value="+ ingredients: Ingredient[]" style="text;strokeColor=none;fillColor=none;align=left;verticalAlign=top;spacingLeft=4;spacingRight=4;overflow=hidden;rotatable=0;points=[[0,0.5],[1,0.5]];portConstraint=eastwest;whiteSpace=wrap;html=1;" vertex="1" parent="U-Sf9MAT8RMJsGlsqO_k-11">
          <mxGeometry y="82" width="160" height="26" as="geometry" />
        </mxCell>
        <mxCell id="U-Sf9MAT8RMJsGlsqO_k-13" value="" style="line;strokeWidth=1;fillColor=none;align=left;verticalAlign=middle;spacingTop=-1;spacingLeft=3;spacingRight=3;rotatable=0;labelPosition=right;points=[];portConstraint=eastwest;strokeColor=inherit;" vertex="1" parent="U-Sf9MAT8RMJsGlsqO_k-11">
          <mxGeometry y="108" width="160" height="8" as="geometry" />
        </mxCell>
        <mxCell id="U-Sf9MAT8RMJsGlsqO_k-129" style="edgeStyle=orthogonalEdgeStyle;rounded=0;orthogonalLoop=1;jettySize=auto;html=1;exitX=0.5;exitY=0;exitDx=0;exitDy=0;entryX=0.5;entryY=1;entryDx=0;entryDy=0;endArrow=block;endFill=0;" edge="1" parent="1" source="U-Sf9MAT8RMJsGlsqO_k-16" target="brpPsIEIQ0xfQox0xX0i-1">
          <mxGeometry relative="1" as="geometry" />
        </mxCell>
        <mxCell id="U-Sf9MAT8RMJsGlsqO_k-16" value="Drink" style="swimlane;fontStyle=1;align=center;verticalAlign=top;childLayout=stackLayout;horizontal=1;startSize=26;horizontalStack=0;resizeParent=1;resizeParentMax=0;resizeLast=0;collapsible=1;marginBottom=0;whiteSpace=wrap;html=1;" vertex="1" parent="1">
          <mxGeometry x="320" y="790" width="160" height="116" as="geometry" />
        </mxCell>
        <mxCell id="U-Sf9MAT8RMJsGlsqO_k-17" value="+ name: String" style="text;strokeColor=none;fillColor=none;align=left;verticalAlign=top;spacingLeft=4;spacingRight=4;overflow=hidden;rotatable=0;points=[[0,0.5],[1,0.5]];portConstraint=eastwest;whiteSpace=wrap;html=1;" vertex="1" parent="U-Sf9MAT8RMJsGlsqO_k-16">
          <mxGeometry y="26" width="160" height="30" as="geometry" />
        </mxCell>
        <mxCell id="U-Sf9MAT8RMJsGlsqO_k-132" value="+ calories: unsigned" style="text;strokeColor=none;fillColor=none;align=left;verticalAlign=top;spacingLeft=4;spacingRight=4;overflow=hidden;rotatable=0;points=[[0,0.5],[1,0.5]];portConstraint=eastwest;whiteSpace=wrap;html=1;" vertex="1" parent="U-Sf9MAT8RMJsGlsqO_k-16">
          <mxGeometry y="56" width="160" height="26" as="geometry" />
        </mxCell>
        <mxCell id="U-Sf9MAT8RMJsGlsqO_k-138" value="+ ingredients: Ingredient[]" style="text;strokeColor=none;fillColor=none;align=left;verticalAlign=top;spacingLeft=4;spacingRight=4;overflow=hidden;rotatable=0;points=[[0,0.5],[1,0.5]];portConstraint=eastwest;whiteSpace=wrap;html=1;" vertex="1" parent="U-Sf9MAT8RMJsGlsqO_k-16">
          <mxGeometry y="82" width="160" height="26" as="geometry" />
        </mxCell>
        <mxCell id="U-Sf9MAT8RMJsGlsqO_k-18" value="" style="line;strokeWidth=1;fillColor=none;align=left;verticalAlign=middle;spacingTop=-1;spacingLeft=3;spacingRight=3;rotatable=0;labelPosition=right;points=[];portConstraint=eastwest;strokeColor=inherit;" vertex="1" parent="U-Sf9MAT8RMJsGlsqO_k-16">
          <mxGeometry y="108" width="160" height="8" as="geometry" />
        </mxCell>
        <mxCell id="U-Sf9MAT8RMJsGlsqO_k-130" style="edgeStyle=orthogonalEdgeStyle;rounded=0;orthogonalLoop=1;jettySize=auto;html=1;exitX=0.5;exitY=0;exitDx=0;exitDy=0;entryX=0.75;entryY=1;entryDx=0;entryDy=0;endArrow=block;endFill=0;" edge="1" parent="1" source="U-Sf9MAT8RMJsGlsqO_k-21" target="brpPsIEIQ0xfQox0xX0i-1">
          <mxGeometry relative="1" as="geometry" />
        </mxCell>
        <mxCell id="U-Sf9MAT8RMJsGlsqO_k-21" value="Else" style="swimlane;fontStyle=1;align=center;verticalAlign=top;childLayout=stackLayout;horizontal=1;startSize=26;horizontalStack=0;resizeParent=1;resizeParentMax=0;resizeLast=0;collapsible=1;marginBottom=0;whiteSpace=wrap;html=1;" vertex="1" parent="1">
          <mxGeometry x="505" y="790" width="160" height="116" as="geometry" />
        </mxCell>
        <mxCell id="U-Sf9MAT8RMJsGlsqO_k-135" value="+ name: String" style="text;strokeColor=none;fillColor=none;align=left;verticalAlign=top;spacingLeft=4;spacingRight=4;overflow=hidden;rotatable=0;points=[[0,0.5],[1,0.5]];portConstraint=eastwest;whiteSpace=wrap;html=1;" vertex="1" parent="U-Sf9MAT8RMJsGlsqO_k-21">
          <mxGeometry y="26" width="160" height="30" as="geometry" />
        </mxCell>
        <mxCell id="U-Sf9MAT8RMJsGlsqO_k-136" value="+ calories: unsigned" style="text;strokeColor=none;fillColor=none;align=left;verticalAlign=top;spacingLeft=4;spacingRight=4;overflow=hidden;rotatable=0;points=[[0,0.5],[1,0.5]];portConstraint=eastwest;whiteSpace=wrap;html=1;" vertex="1" parent="U-Sf9MAT8RMJsGlsqO_k-21">
          <mxGeometry y="56" width="160" height="26" as="geometry" />
        </mxCell>
        <mxCell id="U-Sf9MAT8RMJsGlsqO_k-139" value="+ ingredients: Ingredient[]" style="text;strokeColor=none;fillColor=none;align=left;verticalAlign=top;spacingLeft=4;spacingRight=4;overflow=hidden;rotatable=0;points=[[0,0.5],[1,0.5]];portConstraint=eastwest;whiteSpace=wrap;html=1;" vertex="1" parent="U-Sf9MAT8RMJsGlsqO_k-21">
          <mxGeometry y="82" width="160" height="26" as="geometry" />
        </mxCell>
        <mxCell id="U-Sf9MAT8RMJsGlsqO_k-23" value="" style="line;strokeWidth=1;fillColor=none;align=left;verticalAlign=middle;spacingTop=-1;spacingLeft=3;spacingRight=3;rotatable=0;labelPosition=right;points=[];portConstraint=eastwest;strokeColor=inherit;" vertex="1" parent="U-Sf9MAT8RMJsGlsqO_k-21">
          <mxGeometry y="108" width="160" height="8" as="geometry" />
        </mxCell>
        <mxCell id="U-Sf9MAT8RMJsGlsqO_k-53" value="&lt;i&gt;User&lt;/i&gt;" style="swimlane;fontStyle=1;align=center;verticalAlign=top;childLayout=stackLayout;horizontal=1;startSize=26;horizontalStack=0;resizeParent=1;resizeParentMax=0;resizeLast=0;collapsible=1;marginBottom=0;whiteSpace=wrap;html=1;" vertex="1" parent="1">
          <mxGeometry x="560" y="-600" width="160" height="112" as="geometry" />
        </mxCell>
        <mxCell id="U-Sf9MAT8RMJsGlsqO_k-57" value="- username: String" style="text;strokeColor=none;fillColor=none;align=left;verticalAlign=top;spacingLeft=4;spacingRight=4;overflow=hidden;rotatable=0;points=[[0,0.5],[1,0.5]];portConstraint=eastwest;whiteSpace=wrap;html=1;" vertex="1" parent="U-Sf9MAT8RMJsGlsqO_k-53">
          <mxGeometry y="26" width="160" height="26" as="geometry" />
        </mxCell>
        <mxCell id="U-Sf9MAT8RMJsGlsqO_k-58" value="- password&lt;span style=&quot;background-color: initial;&quot;&gt;: String&lt;/span&gt;" style="text;strokeColor=none;fillColor=none;align=left;verticalAlign=top;spacingLeft=4;spacingRight=4;overflow=hidden;rotatable=0;points=[[0,0.5],[1,0.5]];portConstraint=eastwest;whiteSpace=wrap;html=1;" vertex="1" parent="U-Sf9MAT8RMJsGlsqO_k-53">
          <mxGeometry y="52" width="160" height="26" as="geometry" />
        </mxCell>
        <mxCell id="U-Sf9MAT8RMJsGlsqO_k-55" value="" style="line;strokeWidth=1;fillColor=none;align=left;verticalAlign=middle;spacingTop=-1;spacingLeft=3;spacingRight=3;rotatable=0;labelPosition=right;points=[];portConstraint=eastwest;strokeColor=inherit;" vertex="1" parent="U-Sf9MAT8RMJsGlsqO_k-53">
          <mxGeometry y="78" width="160" height="8" as="geometry" />
        </mxCell>
        <mxCell id="U-Sf9MAT8RMJsGlsqO_k-169" value="- logOut(): void" style="text;strokeColor=none;fillColor=none;align=left;verticalAlign=top;spacingLeft=4;spacingRight=4;overflow=hidden;rotatable=0;points=[[0,0.5],[1,0.5]];portConstraint=eastwest;whiteSpace=wrap;html=1;" vertex="1" parent="U-Sf9MAT8RMJsGlsqO_k-53">
          <mxGeometry y="86" width="160" height="26" as="geometry" />
        </mxCell>
        <mxCell id="U-Sf9MAT8RMJsGlsqO_k-75" style="edgeStyle=orthogonalEdgeStyle;rounded=0;orthogonalLoop=1;jettySize=auto;html=1;exitX=0.5;exitY=0;exitDx=0;exitDy=0;endArrow=block;endFill=0;endSize=6;startSize=10;" edge="1" parent="1" source="U-Sf9MAT8RMJsGlsqO_k-63" target="U-Sf9MAT8RMJsGlsqO_k-53">
          <mxGeometry relative="1" as="geometry">
            <mxPoint x="665" y="-430" as="targetPoint" />
            <Array as="points">
              <mxPoint x="845" y="-430" />
              <mxPoint x="685" y="-430" />
            </Array>
          </mxGeometry>
        </mxCell>
        <mxCell id="U-Sf9MAT8RMJsGlsqO_k-63" value="Admin" style="swimlane;fontStyle=1;align=center;verticalAlign=top;childLayout=stackLayout;horizontal=1;startSize=26;horizontalStack=0;resizeParent=1;resizeParentMax=0;resizeLast=0;collapsible=1;marginBottom=0;whiteSpace=wrap;html=1;" vertex="1" parent="1">
          <mxGeometry x="760" y="-400" width="160" height="332" as="geometry" />
        </mxCell>
        <mxCell id="U-Sf9MAT8RMJsGlsqO_k-64" value="- username: String" style="text;strokeColor=none;fillColor=none;align=left;verticalAlign=top;spacingLeft=4;spacingRight=4;overflow=hidden;rotatable=0;points=[[0,0.5],[1,0.5]];portConstraint=eastwest;whiteSpace=wrap;html=1;" vertex="1" parent="U-Sf9MAT8RMJsGlsqO_k-63">
          <mxGeometry y="26" width="160" height="26" as="geometry" />
        </mxCell>
        <mxCell id="U-Sf9MAT8RMJsGlsqO_k-78" value="- password: String" style="text;strokeColor=none;fillColor=none;align=left;verticalAlign=top;spacingLeft=4;spacingRight=4;overflow=hidden;rotatable=0;points=[[0,0.5],[1,0.5]];portConstraint=eastwest;whiteSpace=wrap;html=1;" vertex="1" parent="U-Sf9MAT8RMJsGlsqO_k-63">
          <mxGeometry y="52" width="160" height="26" as="geometry" />
        </mxCell>
        <mxCell id="U-Sf9MAT8RMJsGlsqO_k-65" value="" style="line;strokeWidth=1;fillColor=none;align=left;verticalAlign=middle;spacingTop=-1;spacingLeft=3;spacingRight=3;rotatable=0;labelPosition=right;points=[];portConstraint=eastwest;strokeColor=inherit;" vertex="1" parent="U-Sf9MAT8RMJsGlsqO_k-63">
          <mxGeometry y="78" width="160" height="8" as="geometry" />
        </mxCell>
        <mxCell id="U-Sf9MAT8RMJsGlsqO_k-66" value="- addOrder(): void" style="text;strokeColor=none;fillColor=none;align=left;verticalAlign=top;spacingLeft=4;spacingRight=4;overflow=hidden;rotatable=0;points=[[0,0.5],[1,0.5]];portConstraint=eastwest;whiteSpace=wrap;html=1;" vertex="1" parent="U-Sf9MAT8RMJsGlsqO_k-63">
          <mxGeometry y="86" width="160" height="26" as="geometry" />
        </mxCell>
        <mxCell id="U-Sf9MAT8RMJsGlsqO_k-91" value="- remove&lt;span style=&quot;color: rgba(0, 0, 0, 0); font-family: monospace; font-size: 0px; text-wrap: nowrap;&quot;&gt;%3CmxGraphModel%3E%3Croot%3E%3CmxCell%20id%3D%220%22%2F%3E%3CmxCell%20id%3D%221%22%20parent%3D%220%22%2F%3E%3CmxCell%20id%3D%222%22%20value%3D%22%2B%20addOrder()%3A%20void%22%20style%3D%22text%3BstrokeColor%3Dnone%3BfillColor%3Dnone%3Balign%3Dleft%3BverticalAlign%3Dtop%3BspacingLeft%3D4%3BspacingRight%3D4%3Boverflow%3Dhidden%3Brotatable%3D0%3Bpoints%3D%5B%5B0%2C0.5%5D%2C%5B1%2C0.5%5D%5D%3BportConstraint%3Deastwest%3BwhiteSpace%3Dwrap%3Bhtml%3D1%3B%22%20vertex%3D%221%22%20parent%3D%221%22%3E%3CmxGeometry%20x%3D%22360%22%20y%3D%2286%22%20width%3D%22160%22%20height%3D%2226%22%20as%3D%22geometry%22%2F%3E%3C%2FmxCell%3E%3C%2Froot%3E%3C%2FmxGraphModel%3E&lt;/span&gt;&lt;span style=&quot;color: rgba(0, 0, 0, 0); font-family: monospace; font-size: 0px; text-wrap: nowrap;&quot;&gt;%3CmxGraphModel%3E%3Croot%3E%3CmxCell%20id%3D%220%22%2F%3E%3CmxCell%20id%3D%221%22%20parent%3D%220%22%2F%3E%3CmxCell%20id%3D%222%22%20value%3D%22%2B%20addOrder()%3A%20void%22%20style%3D%22text%3BstrokeColor%3Dnone%3BfillColor%3Dnone%3Balign%3Dleft%3BverticalAlign%3Dtop%3BspacingLeft%3D4%3BspacingRight%3D4%3Boverflow%3Dhidden%3Brotatable%3D0%3Bpoints%3D%5B%5B0%2C0.5%5D%2C%5B1%2C0.5%5D%5D%3BportConstraint%3Deastwest%3BwhiteSpace%3Dwrap%3Bhtml%3D1%3B%22%20vertex%3D%221%22%20parent%3D%221%22%3E%3CmxGeometry%20x%3D%22360%22%20y%3D%2286%22%20width%3D%22160%22%20height%3D%2226%22%20as%3D%22geometry%22%2F%3E%3C%2FmxCell%3E%3C%2Froot%3E%3C%2FmxGraphModel%3E&lt;/span&gt;Order(): void" style="text;strokeColor=none;fillColor=none;align=left;verticalAlign=top;spacingLeft=4;spacingRight=4;overflow=hidden;rotatable=0;points=[[0,0.5],[1,0.5]];portConstraint=eastwest;whiteSpace=wrap;html=1;" vertex="1" parent="U-Sf9MAT8RMJsGlsqO_k-63">
          <mxGeometry y="112" width="160" height="26" as="geometry" />
        </mxCell>
        <mxCell id="U-Sf9MAT8RMJsGlsqO_k-186" value="- addUser(): void" style="text;strokeColor=none;fillColor=none;align=left;verticalAlign=top;spacingLeft=4;spacingRight=4;overflow=hidden;rotatable=0;points=[[0,0.5],[1,0.5]];portConstraint=eastwest;whiteSpace=wrap;html=1;" vertex="1" parent="U-Sf9MAT8RMJsGlsqO_k-63">
          <mxGeometry y="138" width="160" height="26" as="geometry" />
        </mxCell>
        <mxCell id="U-Sf9MAT8RMJsGlsqO_k-94" value="- suspendUser(): void" style="text;strokeColor=none;fillColor=none;align=left;verticalAlign=top;spacingLeft=4;spacingRight=4;overflow=hidden;rotatable=0;points=[[0,0.5],[1,0.5]];portConstraint=eastwest;whiteSpace=wrap;html=1;" vertex="1" parent="U-Sf9MAT8RMJsGlsqO_k-63">
          <mxGeometry y="164" width="160" height="26" as="geometry" />
        </mxCell>
        <mxCell id="U-Sf9MAT8RMJsGlsqO_k-93" value="- removeUser(): void" style="text;strokeColor=none;fillColor=none;align=left;verticalAlign=top;spacingLeft=4;spacingRight=4;overflow=hidden;rotatable=0;points=[[0,0.5],[1,0.5]];portConstraint=eastwest;whiteSpace=wrap;html=1;" vertex="1" parent="U-Sf9MAT8RMJsGlsqO_k-63">
          <mxGeometry y="190" width="160" height="26" as="geometry" />
        </mxCell>
        <mxCell id="U-Sf9MAT8RMJsGlsqO_k-187" value="- addRestaurant(): void" style="text;strokeColor=none;fillColor=none;align=left;verticalAlign=top;spacingLeft=4;spacingRight=4;overflow=hidden;rotatable=0;points=[[0,0.5],[1,0.5]];portConstraint=eastwest;whiteSpace=wrap;html=1;" vertex="1" parent="U-Sf9MAT8RMJsGlsqO_k-63">
          <mxGeometry y="216" width="160" height="26" as="geometry" />
        </mxCell>
        <mxCell id="U-Sf9MAT8RMJsGlsqO_k-190" value="- seeRestaurant(): void" style="text;strokeColor=none;fillColor=none;align=left;verticalAlign=top;spacingLeft=4;spacingRight=4;overflow=hidden;rotatable=0;points=[[0,0.5],[1,0.5]];portConstraint=eastwest;whiteSpace=wrap;html=1;" vertex="1" parent="U-Sf9MAT8RMJsGlsqO_k-63">
          <mxGeometry y="242" width="160" height="28" as="geometry" />
        </mxCell>
        <mxCell id="U-Sf9MAT8RMJsGlsqO_k-195" value="- modifyRestaurant(): void" style="text;strokeColor=none;fillColor=none;align=left;verticalAlign=top;spacingLeft=4;spacingRight=4;overflow=hidden;rotatable=0;points=[[0,0.5],[1,0.5]];portConstraint=eastwest;whiteSpace=wrap;html=1;" vertex="1" parent="U-Sf9MAT8RMJsGlsqO_k-63">
          <mxGeometry y="270" width="160" height="32" as="geometry" />
        </mxCell>
        <mxCell id="U-Sf9MAT8RMJsGlsqO_k-188" value="- removeRestaurant(): void" style="text;strokeColor=none;fillColor=none;align=left;verticalAlign=top;spacingLeft=4;spacingRight=4;overflow=hidden;rotatable=0;points=[[0,0.5],[1,0.5]];portConstraint=eastwest;whiteSpace=wrap;html=1;" vertex="1" parent="U-Sf9MAT8RMJsGlsqO_k-63">
          <mxGeometry y="302" width="160" height="30" as="geometry" />
        </mxCell>
        <mxCell id="U-Sf9MAT8RMJsGlsqO_k-76" style="edgeStyle=orthogonalEdgeStyle;rounded=0;orthogonalLoop=1;jettySize=auto;html=1;exitX=0.5;exitY=0;exitDx=0;exitDy=0;endSize=6;startSize=10;endArrow=block;endFill=0;entryX=0.25;entryY=1;entryDx=0;entryDy=0;" edge="1" parent="1" source="U-Sf9MAT8RMJsGlsqO_k-67" target="U-Sf9MAT8RMJsGlsqO_k-53">
          <mxGeometry relative="1" as="geometry">
            <mxPoint x="515" y="-410" as="targetPoint" />
            <Array as="points">
              <mxPoint x="445" y="-400" />
              <mxPoint x="445" y="-440" />
              <mxPoint x="600" y="-440" />
            </Array>
          </mxGeometry>
        </mxCell>
        <mxCell id="U-Sf9MAT8RMJsGlsqO_k-67" value="Consumer" style="swimlane;fontStyle=1;align=center;verticalAlign=top;childLayout=stackLayout;horizontal=1;startSize=26;horizontalStack=0;resizeParent=1;resizeParentMax=0;resizeLast=0;collapsible=1;marginBottom=0;whiteSpace=wrap;html=1;" vertex="1" parent="1">
          <mxGeometry x="360" y="-400" width="160" height="322" as="geometry" />
        </mxCell>
        <mxCell id="U-Sf9MAT8RMJsGlsqO_k-177" value="- password&lt;span style=&quot;background-color: initial;&quot;&gt;: String&lt;/span&gt;" style="text;strokeColor=none;fillColor=none;align=left;verticalAlign=top;spacingLeft=4;spacingRight=4;overflow=hidden;rotatable=0;points=[[0,0.5],[1,0.5]];portConstraint=eastwest;whiteSpace=wrap;html=1;" vertex="1" parent="U-Sf9MAT8RMJsGlsqO_k-67">
          <mxGeometry y="26" width="160" height="26" as="geometry" />
        </mxCell>
        <mxCell id="U-Sf9MAT8RMJsGlsqO_k-176" value="- username: String" style="text;strokeColor=none;fillColor=none;align=left;verticalAlign=top;spacingLeft=4;spacingRight=4;overflow=hidden;rotatable=0;points=[[0,0.5],[1,0.5]];portConstraint=eastwest;whiteSpace=wrap;html=1;" vertex="1" parent="U-Sf9MAT8RMJsGlsqO_k-67">
          <mxGeometry y="52" width="160" height="26" as="geometry" />
        </mxCell>
        <mxCell id="U-Sf9MAT8RMJsGlsqO_k-179" value="- suspended: boolean" style="text;strokeColor=none;fillColor=none;align=left;verticalAlign=top;spacingLeft=4;spacingRight=4;overflow=hidden;rotatable=0;points=[[0,0.5],[1,0.5]];portConstraint=eastwest;whiteSpace=wrap;html=1;" vertex="1" parent="U-Sf9MAT8RMJsGlsqO_k-67">
          <mxGeometry y="78" width="160" height="26" as="geometry" />
        </mxCell>
        <mxCell id="U-Sf9MAT8RMJsGlsqO_k-69" value="" style="line;strokeWidth=1;fillColor=none;align=left;verticalAlign=middle;spacingTop=-1;spacingLeft=3;spacingRight=3;rotatable=0;labelPosition=right;points=[];portConstraint=eastwest;strokeColor=inherit;" vertex="1" parent="U-Sf9MAT8RMJsGlsqO_k-67">
          <mxGeometry y="104" width="160" height="8" as="geometry" />
        </mxCell>
        <mxCell id="U-Sf9MAT8RMJsGlsqO_k-56" value="- viewRestaurants(): void" style="text;strokeColor=none;fillColor=none;align=left;verticalAlign=top;spacingLeft=4;spacingRight=4;overflow=hidden;rotatable=0;points=[[0,0.5],[1,0.5]];portConstraint=eastwest;whiteSpace=wrap;html=1;" vertex="1" parent="U-Sf9MAT8RMJsGlsqO_k-67">
          <mxGeometry y="112" width="160" height="26" as="geometry" />
        </mxCell>
        <mxCell id="U-Sf9MAT8RMJsGlsqO_k-196" value="- viewItem(): void" style="text;strokeColor=none;fillColor=none;align=left;verticalAlign=top;spacingLeft=4;spacingRight=4;overflow=hidden;rotatable=0;points=[[0,0.5],[1,0.5]];portConstraint=eastwest;whiteSpace=wrap;html=1;" vertex="1" parent="U-Sf9MAT8RMJsGlsqO_k-67">
          <mxGeometry y="138" width="160" height="26" as="geometry" />
        </mxCell>
        <mxCell id="U-Sf9MAT8RMJsGlsqO_k-197" value="- changeItem(): void" style="text;strokeColor=none;fillColor=none;align=left;verticalAlign=top;spacingLeft=4;spacingRight=4;overflow=hidden;rotatable=0;points=[[0,0.5],[1,0.5]];portConstraint=eastwest;whiteSpace=wrap;html=1;" vertex="1" parent="U-Sf9MAT8RMJsGlsqO_k-67">
          <mxGeometry y="164" width="160" height="26" as="geometry" />
        </mxCell>
        <mxCell id="U-Sf9MAT8RMJsGlsqO_k-59" value="- placeOrder(): void" style="text;strokeColor=none;fillColor=none;align=left;verticalAlign=top;spacingLeft=4;spacingRight=4;overflow=hidden;rotatable=0;points=[[0,0.5],[1,0.5]];portConstraint=eastwest;whiteSpace=wrap;html=1;" vertex="1" parent="U-Sf9MAT8RMJsGlsqO_k-67">
          <mxGeometry y="190" width="160" height="26" as="geometry" />
        </mxCell>
        <mxCell id="U-Sf9MAT8RMJsGlsqO_k-60" value="- addToCart(): void" style="text;strokeColor=none;fillColor=none;align=left;verticalAlign=top;spacingLeft=4;spacingRight=4;overflow=hidden;rotatable=0;points=[[0,0.5],[1,0.5]];portConstraint=eastwest;whiteSpace=wrap;html=1;" vertex="1" parent="U-Sf9MAT8RMJsGlsqO_k-67">
          <mxGeometry y="216" width="160" height="26" as="geometry" />
        </mxCell>
        <mxCell id="U-Sf9MAT8RMJsGlsqO_k-159" value="- removeFromCart(): void" style="text;strokeColor=none;fillColor=none;align=left;verticalAlign=top;spacingLeft=4;spacingRight=4;overflow=hidden;rotatable=0;points=[[0,0.5],[1,0.5]];portConstraint=eastwest;whiteSpace=wrap;html=1;" vertex="1" parent="U-Sf9MAT8RMJsGlsqO_k-67">
          <mxGeometry y="242" width="160" height="26" as="geometry" />
        </mxCell>
        <mxCell id="U-Sf9MAT8RMJsGlsqO_k-189" value="- modifyProfile(): void" style="text;strokeColor=none;fillColor=none;align=left;verticalAlign=top;spacingLeft=4;spacingRight=4;overflow=hidden;rotatable=0;points=[[0,0.5],[1,0.5]];portConstraint=eastwest;whiteSpace=wrap;html=1;" vertex="1" parent="U-Sf9MAT8RMJsGlsqO_k-67">
          <mxGeometry y="268" width="160" height="28" as="geometry" />
        </mxCell>
        <mxCell id="U-Sf9MAT8RMJsGlsqO_k-171" value="- logOut(): void" style="text;strokeColor=none;fillColor=none;align=left;verticalAlign=top;spacingLeft=4;spacingRight=4;overflow=hidden;rotatable=0;points=[[0,0.5],[1,0.5]];portConstraint=eastwest;whiteSpace=wrap;html=1;" vertex="1" parent="U-Sf9MAT8RMJsGlsqO_k-67">
          <mxGeometry y="296" width="160" height="26" as="geometry" />
        </mxCell>
        <mxCell id="U-Sf9MAT8RMJsGlsqO_k-170" style="edgeStyle=orthogonalEdgeStyle;rounded=0;orthogonalLoop=1;jettySize=auto;html=1;exitX=0.5;exitY=0;exitDx=0;exitDy=0;entryX=0.5;entryY=1;entryDx=0;entryDy=0;endArrow=block;endFill=0;" edge="1" parent="1" source="U-Sf9MAT8RMJsGlsqO_k-71" target="U-Sf9MAT8RMJsGlsqO_k-53">
          <mxGeometry relative="1" as="geometry" />
        </mxCell>
        <mxCell id="U-Sf9MAT8RMJsGlsqO_k-71" value="Courier" style="swimlane;fontStyle=1;align=center;verticalAlign=top;childLayout=stackLayout;horizontal=1;startSize=26;horizontalStack=0;resizeParent=1;resizeParentMax=0;resizeLast=0;collapsible=1;marginBottom=0;whiteSpace=wrap;html=1;" vertex="1" parent="1">
          <mxGeometry x="560" y="-400" width="160" height="216" as="geometry" />
        </mxCell>
        <mxCell id="U-Sf9MAT8RMJsGlsqO_k-174" value="- username: String" style="text;strokeColor=none;fillColor=none;align=left;verticalAlign=top;spacingLeft=4;spacingRight=4;overflow=hidden;rotatable=0;points=[[0,0.5],[1,0.5]];portConstraint=eastwest;whiteSpace=wrap;html=1;" vertex="1" parent="U-Sf9MAT8RMJsGlsqO_k-71">
          <mxGeometry y="26" width="160" height="26" as="geometry" />
        </mxCell>
        <mxCell id="U-Sf9MAT8RMJsGlsqO_k-175" value="- password&lt;span style=&quot;background-color: initial;&quot;&gt;: String&lt;/span&gt;" style="text;strokeColor=none;fillColor=none;align=left;verticalAlign=top;spacingLeft=4;spacingRight=4;overflow=hidden;rotatable=0;points=[[0,0.5],[1,0.5]];portConstraint=eastwest;whiteSpace=wrap;html=1;" vertex="1" parent="U-Sf9MAT8RMJsGlsqO_k-71">
          <mxGeometry y="52" width="160" height="26" as="geometry" />
        </mxCell>
        <mxCell id="U-Sf9MAT8RMJsGlsqO_k-178" value="- suspended: boolean" style="text;strokeColor=none;fillColor=none;align=left;verticalAlign=top;spacingLeft=4;spacingRight=4;overflow=hidden;rotatable=0;points=[[0,0.5],[1,0.5]];portConstraint=eastwest;whiteSpace=wrap;html=1;" vertex="1" parent="U-Sf9MAT8RMJsGlsqO_k-71">
          <mxGeometry y="78" width="160" height="26" as="geometry" />
        </mxCell>
        <mxCell id="U-Sf9MAT8RMJsGlsqO_k-172" value="- order: Order" style="text;strokeColor=none;fillColor=none;align=left;verticalAlign=top;spacingLeft=4;spacingRight=4;overflow=hidden;rotatable=0;points=[[0,0.5],[1,0.5]];portConstraint=eastwest;whiteSpace=wrap;html=1;" vertex="1" parent="U-Sf9MAT8RMJsGlsqO_k-71">
          <mxGeometry y="104" width="160" height="26" as="geometry" />
        </mxCell>
        <mxCell id="U-Sf9MAT8RMJsGlsqO_k-73" value="" style="line;strokeWidth=1;fillColor=none;align=left;verticalAlign=middle;spacingTop=-1;spacingLeft=3;spacingRight=3;rotatable=0;labelPosition=right;points=[];portConstraint=eastwest;strokeColor=inherit;" vertex="1" parent="U-Sf9MAT8RMJsGlsqO_k-71">
          <mxGeometry y="130" width="160" height="8" as="geometry" />
        </mxCell>
        <mxCell id="U-Sf9MAT8RMJsGlsqO_k-74" value="- acceptOrder(): void" style="text;strokeColor=none;fillColor=none;align=left;verticalAlign=top;spacingLeft=4;spacingRight=4;overflow=hidden;rotatable=0;points=[[0,0.5],[1,0.5]];portConstraint=eastwest;whiteSpace=wrap;html=1;" vertex="1" parent="U-Sf9MAT8RMJsGlsqO_k-71">
          <mxGeometry y="138" width="160" height="26" as="geometry" />
        </mxCell>
        <mxCell id="U-Sf9MAT8RMJsGlsqO_k-173" value="- finishOrder(): void" style="text;strokeColor=none;fillColor=none;align=left;verticalAlign=top;spacingLeft=4;spacingRight=4;overflow=hidden;rotatable=0;points=[[0,0.5],[1,0.5]];portConstraint=eastwest;whiteSpace=wrap;html=1;" vertex="1" parent="U-Sf9MAT8RMJsGlsqO_k-71">
          <mxGeometry y="164" width="160" height="26" as="geometry" />
        </mxCell>
        <mxCell id="U-Sf9MAT8RMJsGlsqO_k-95" value="- seeOrder(): void" style="text;strokeColor=none;fillColor=none;align=left;verticalAlign=top;spacingLeft=4;spacingRight=4;overflow=hidden;rotatable=0;points=[[0,0.5],[1,0.5]];portConstraint=eastwest;whiteSpace=wrap;html=1;" vertex="1" parent="U-Sf9MAT8RMJsGlsqO_k-71">
          <mxGeometry y="190" width="160" height="26" as="geometry" />
        </mxCell>
        <mxCell id="U-Sf9MAT8RMJsGlsqO_k-184" style="edgeStyle=orthogonalEdgeStyle;rounded=0;orthogonalLoop=1;jettySize=auto;html=1;exitX=0;exitY=0.5;exitDx=0;exitDy=0;" edge="1" parent="1" source="U-Sf9MAT8RMJsGlsqO_k-83" target="U-Sf9MAT8RMJsGlsqO_k-67">
          <mxGeometry relative="1" as="geometry">
            <Array as="points">
              <mxPoint x="520" y="60" />
            </Array>
          </mxGeometry>
        </mxCell>
        <mxCell id="U-Sf9MAT8RMJsGlsqO_k-83" value="OrderList" style="swimlane;fontStyle=1;align=center;verticalAlign=top;childLayout=stackLayout;horizontal=1;startSize=26;horizontalStack=0;resizeParent=1;resizeParentMax=0;resizeLast=0;collapsible=1;marginBottom=0;whiteSpace=wrap;html=1;" vertex="1" parent="1">
          <mxGeometry x="565" y="30" width="160" height="60" as="geometry" />
        </mxCell>
        <mxCell id="U-Sf9MAT8RMJsGlsqO_k-86" value="+ orders: Order[]" style="text;strokeColor=none;fillColor=none;align=left;verticalAlign=top;spacingLeft=4;spacingRight=4;overflow=hidden;rotatable=0;points=[[0,0.5],[1,0.5]];portConstraint=eastwest;whiteSpace=wrap;html=1;" vertex="1" parent="U-Sf9MAT8RMJsGlsqO_k-83">
          <mxGeometry y="26" width="160" height="26" as="geometry" />
        </mxCell>
        <mxCell id="U-Sf9MAT8RMJsGlsqO_k-87" value="" style="line;strokeWidth=1;fillColor=none;align=left;verticalAlign=middle;spacingTop=-1;spacingLeft=3;spacingRight=3;rotatable=0;labelPosition=right;points=[];portConstraint=eastwest;strokeColor=inherit;" vertex="1" parent="U-Sf9MAT8RMJsGlsqO_k-83">
          <mxGeometry y="52" width="160" height="8" as="geometry" />
        </mxCell>
        <mxCell id="U-Sf9MAT8RMJsGlsqO_k-88" style="edgeStyle=orthogonalEdgeStyle;rounded=0;orthogonalLoop=1;jettySize=auto;html=1;exitX=0.5;exitY=0;exitDx=0;exitDy=0;entryX=0.5;entryY=1;entryDx=0;entryDy=0;" edge="1" parent="1" source="U-Sf9MAT8RMJsGlsqO_k-1" target="U-Sf9MAT8RMJsGlsqO_k-83">
          <mxGeometry relative="1" as="geometry" />
        </mxCell>
        <mxCell id="U-Sf9MAT8RMJsGlsqO_k-90" style="edgeStyle=orthogonalEdgeStyle;rounded=0;orthogonalLoop=1;jettySize=auto;html=1;exitX=0.5;exitY=0;exitDx=0;exitDy=0;endArrow=block;endFill=1;" edge="1" parent="1" source="U-Sf9MAT8RMJsGlsqO_k-83" target="U-Sf9MAT8RMJsGlsqO_k-71">
          <mxGeometry relative="1" as="geometry">
            <mxPoint x="645.0000000000002" y="-39.99999999999977" as="sourcePoint" />
          </mxGeometry>
        </mxCell>
        <mxCell id="U-Sf9MAT8RMJsGlsqO_k-92" style="edgeStyle=orthogonalEdgeStyle;rounded=0;orthogonalLoop=1;jettySize=auto;html=1;endArrow=block;endFill=1;exitX=1;exitY=0.5;exitDx=0;exitDy=0;" edge="1" parent="1" source="U-Sf9MAT8RMJsGlsqO_k-86" target="U-Sf9MAT8RMJsGlsqO_k-63">
          <mxGeometry relative="1" as="geometry">
            <mxPoint x="865" y="80" as="sourcePoint" />
            <mxPoint x="675" y="20" as="targetPoint" />
          </mxGeometry>
        </mxCell>
        <mxCell id="U-Sf9MAT8RMJsGlsqO_k-147" style="edgeStyle=orthogonalEdgeStyle;rounded=0;orthogonalLoop=1;jettySize=auto;html=1;exitX=0.5;exitY=0;exitDx=0;exitDy=0;endArrow=classic;endFill=1;" edge="1" parent="1" source="U-Sf9MAT8RMJsGlsqO_k-96" target="U-Sf9MAT8RMJsGlsqO_k-5">
          <mxGeometry relative="1" as="geometry" />
        </mxCell>
        <mxCell id="U-Sf9MAT8RMJsGlsqO_k-96" value="Storage" style="swimlane;fontStyle=1;align=center;verticalAlign=top;childLayout=stackLayout;horizontal=1;startSize=26;horizontalStack=0;resizeParent=1;resizeParentMax=0;resizeLast=0;collapsible=1;marginBottom=0;whiteSpace=wrap;html=1;" vertex="1" parent="1">
          <mxGeometry x="720" y="670" width="160" height="60" as="geometry" />
        </mxCell>
        <mxCell id="U-Sf9MAT8RMJsGlsqO_k-97" value="+ ingredients: Ingredient[]" style="text;strokeColor=none;fillColor=none;align=left;verticalAlign=top;spacingLeft=4;spacingRight=4;overflow=hidden;rotatable=0;points=[[0,0.5],[1,0.5]];portConstraint=eastwest;whiteSpace=wrap;html=1;" vertex="1" parent="U-Sf9MAT8RMJsGlsqO_k-96">
          <mxGeometry y="26" width="160" height="26" as="geometry" />
        </mxCell>
        <mxCell id="U-Sf9MAT8RMJsGlsqO_k-98" value="" style="line;strokeWidth=1;fillColor=none;align=left;verticalAlign=middle;spacingTop=-1;spacingLeft=3;spacingRight=3;rotatable=0;labelPosition=right;points=[];portConstraint=eastwest;strokeColor=inherit;" vertex="1" parent="U-Sf9MAT8RMJsGlsqO_k-96">
          <mxGeometry y="52" width="160" height="8" as="geometry" />
        </mxCell>
        <mxCell id="U-Sf9MAT8RMJsGlsqO_k-105" style="edgeStyle=orthogonalEdgeStyle;rounded=0;orthogonalLoop=1;jettySize=auto;html=1;exitX=0.5;exitY=0;exitDx=0;exitDy=0;endArrow=diamondThin;endFill=1;" edge="1" parent="1" source="U-Sf9MAT8RMJsGlsqO_k-100" target="U-Sf9MAT8RMJsGlsqO_k-96">
          <mxGeometry relative="1" as="geometry" />
        </mxCell>
        <mxCell id="U-Sf9MAT8RMJsGlsqO_k-142" style="edgeStyle=orthogonalEdgeStyle;rounded=0;orthogonalLoop=1;jettySize=auto;html=1;exitX=0;exitY=0.25;exitDx=0;exitDy=0;entryX=0.5;entryY=1;entryDx=0;entryDy=0;endArrow=diamondThin;endFill=0;" edge="1" parent="1" source="U-Sf9MAT8RMJsGlsqO_k-100" target="U-Sf9MAT8RMJsGlsqO_k-21">
          <mxGeometry relative="1" as="geometry" />
        </mxCell>
        <mxCell id="U-Sf9MAT8RMJsGlsqO_k-100" value="Ingredient" style="swimlane;fontStyle=1;align=center;verticalAlign=top;childLayout=stackLayout;horizontal=1;startSize=26;horizontalStack=0;resizeParent=1;resizeParentMax=0;resizeLast=0;collapsible=1;marginBottom=0;whiteSpace=wrap;html=1;" vertex="1" parent="1">
          <mxGeometry x="720" y="906" width="160" height="86" as="geometry" />
        </mxCell>
        <mxCell id="U-Sf9MAT8RMJsGlsqO_k-146" value="# name: String" style="text;strokeColor=none;fillColor=none;align=left;verticalAlign=top;spacingLeft=4;spacingRight=4;overflow=hidden;rotatable=0;points=[[0,0.5],[1,0.5]];portConstraint=eastwest;whiteSpace=wrap;html=1;" vertex="1" parent="U-Sf9MAT8RMJsGlsqO_k-100">
          <mxGeometry y="26" width="160" height="26" as="geometry" />
        </mxCell>
        <mxCell id="U-Sf9MAT8RMJsGlsqO_k-104" value="# count: unsigned" style="text;strokeColor=none;fillColor=none;align=left;verticalAlign=top;spacingLeft=4;spacingRight=4;overflow=hidden;rotatable=0;points=[[0,0.5],[1,0.5]];portConstraint=eastwest;whiteSpace=wrap;html=1;" vertex="1" parent="U-Sf9MAT8RMJsGlsqO_k-100">
          <mxGeometry y="52" width="160" height="26" as="geometry" />
        </mxCell>
        <mxCell id="U-Sf9MAT8RMJsGlsqO_k-102" value="" style="line;strokeWidth=1;fillColor=none;align=left;verticalAlign=middle;spacingTop=-1;spacingLeft=3;spacingRight=3;rotatable=0;labelPosition=right;points=[];portConstraint=eastwest;strokeColor=inherit;" vertex="1" parent="U-Sf9MAT8RMJsGlsqO_k-100">
          <mxGeometry y="78" width="160" height="8" as="geometry" />
        </mxCell>
        <mxCell id="U-Sf9MAT8RMJsGlsqO_k-164" style="edgeStyle=orthogonalEdgeStyle;rounded=0;orthogonalLoop=1;jettySize=auto;html=1;exitX=0.25;exitY=0;exitDx=0;exitDy=0;" edge="1" parent="1" source="U-Sf9MAT8RMJsGlsqO_k-106" target="U-Sf9MAT8RMJsGlsqO_k-152">
          <mxGeometry relative="1" as="geometry">
            <mxPoint x="220" y="-9.999999999999773" as="targetPoint" />
            <Array as="points">
              <mxPoint x="360" y="240" />
              <mxPoint x="221" y="240" />
            </Array>
          </mxGeometry>
        </mxCell>
        <mxCell id="U-Sf9MAT8RMJsGlsqO_k-165" style="edgeStyle=orthogonalEdgeStyle;rounded=0;orthogonalLoop=1;jettySize=auto;html=1;exitX=0.75;exitY=0;exitDx=0;exitDy=0;" edge="1" parent="1" source="U-Sf9MAT8RMJsGlsqO_k-106" target="U-Sf9MAT8RMJsGlsqO_k-67">
          <mxGeometry relative="1" as="geometry">
            <Array as="points">
              <mxPoint x="440" y="240" />
              <mxPoint x="480" y="240" />
            </Array>
          </mxGeometry>
        </mxCell>
        <mxCell id="U-Sf9MAT8RMJsGlsqO_k-185" style="edgeStyle=orthogonalEdgeStyle;rounded=0;orthogonalLoop=1;jettySize=auto;html=1;exitX=1;exitY=0;exitDx=0;exitDy=0;" edge="1" parent="1" source="U-Sf9MAT8RMJsGlsqO_k-106" target="U-Sf9MAT8RMJsGlsqO_k-63">
          <mxGeometry relative="1" as="geometry">
            <Array as="points">
              <mxPoint x="480" y="280" />
              <mxPoint x="880" y="280" />
            </Array>
          </mxGeometry>
        </mxCell>
        <mxCell id="U-Sf9MAT8RMJsGlsqO_k-106" value="Restaurant" style="swimlane;fontStyle=1;align=center;verticalAlign=top;childLayout=stackLayout;horizontal=1;startSize=26;horizontalStack=0;resizeParent=1;resizeParentMax=0;resizeLast=0;collapsible=1;marginBottom=0;whiteSpace=wrap;html=1;" vertex="1" parent="1">
          <mxGeometry x="320" y="340" width="160" height="112" as="geometry" />
        </mxCell>
        <mxCell id="U-Sf9MAT8RMJsGlsqO_k-166" value="- name: String" style="text;strokeColor=none;fillColor=none;align=left;verticalAlign=top;spacingLeft=4;spacingRight=4;overflow=hidden;rotatable=0;points=[[0,0.5],[1,0.5]];portConstraint=eastwest;whiteSpace=wrap;html=1;" vertex="1" parent="U-Sf9MAT8RMJsGlsqO_k-106">
          <mxGeometry y="26" width="160" height="26" as="geometry" />
        </mxCell>
        <mxCell id="U-Sf9MAT8RMJsGlsqO_k-168" value="+ storage: Storage" style="text;strokeColor=none;fillColor=none;align=left;verticalAlign=top;spacingLeft=4;spacingRight=4;overflow=hidden;rotatable=0;points=[[0,0.5],[1,0.5]];portConstraint=eastwest;whiteSpace=wrap;html=1;" vertex="1" parent="U-Sf9MAT8RMJsGlsqO_k-106">
          <mxGeometry y="52" width="160" height="26" as="geometry" />
        </mxCell>
        <mxCell id="U-Sf9MAT8RMJsGlsqO_k-109" value="+ itemList: ItemList" style="text;strokeColor=none;fillColor=none;align=left;verticalAlign=top;spacingLeft=4;spacingRight=4;overflow=hidden;rotatable=0;points=[[0,0.5],[1,0.5]];portConstraint=eastwest;whiteSpace=wrap;html=1;" vertex="1" parent="U-Sf9MAT8RMJsGlsqO_k-106">
          <mxGeometry y="78" width="160" height="26" as="geometry" />
        </mxCell>
        <mxCell id="U-Sf9MAT8RMJsGlsqO_k-108" value="" style="line;strokeWidth=1;fillColor=none;align=left;verticalAlign=middle;spacingTop=-1;spacingLeft=3;spacingRight=3;rotatable=0;labelPosition=right;points=[];portConstraint=eastwest;strokeColor=inherit;" vertex="1" parent="U-Sf9MAT8RMJsGlsqO_k-106">
          <mxGeometry y="104" width="160" height="8" as="geometry" />
        </mxCell>
        <mxCell id="U-Sf9MAT8RMJsGlsqO_k-114" style="edgeStyle=orthogonalEdgeStyle;rounded=0;orthogonalLoop=1;jettySize=auto;html=1;endArrow=diamondThin;endFill=1;" edge="1" parent="1" source="U-Sf9MAT8RMJsGlsqO_k-97" target="U-Sf9MAT8RMJsGlsqO_k-109">
          <mxGeometry relative="1" as="geometry" />
        </mxCell>
        <mxCell id="U-Sf9MAT8RMJsGlsqO_k-198" style="edgeStyle=orthogonalEdgeStyle;rounded=0;orthogonalLoop=1;jettySize=auto;html=1;" edge="1" parent="1" source="U-Sf9MAT8RMJsGlsqO_k-119" target="U-Sf9MAT8RMJsGlsqO_k-67">
          <mxGeometry relative="1" as="geometry" />
        </mxCell>
        <mxCell id="U-Sf9MAT8RMJsGlsqO_k-119" value="ShoppngCart" style="swimlane;fontStyle=1;align=center;verticalAlign=top;childLayout=stackLayout;horizontal=1;startSize=26;horizontalStack=0;resizeParent=1;resizeParentMax=0;resizeLast=0;collapsible=1;marginBottom=0;whiteSpace=wrap;html=1;" vertex="1" parent="1">
          <mxGeometry x="290" width="160" height="60" as="geometry" />
        </mxCell>
        <mxCell id="U-Sf9MAT8RMJsGlsqO_k-120" value="+ orders: Order[]" style="text;strokeColor=none;fillColor=none;align=left;verticalAlign=top;spacingLeft=4;spacingRight=4;overflow=hidden;rotatable=0;points=[[0,0.5],[1,0.5]];portConstraint=eastwest;whiteSpace=wrap;html=1;" vertex="1" parent="U-Sf9MAT8RMJsGlsqO_k-119">
          <mxGeometry y="26" width="160" height="26" as="geometry" />
        </mxCell>
        <mxCell id="U-Sf9MAT8RMJsGlsqO_k-121" value="" style="line;strokeWidth=1;fillColor=none;align=left;verticalAlign=middle;spacingTop=-1;spacingLeft=3;spacingRight=3;rotatable=0;labelPosition=right;points=[];portConstraint=eastwest;strokeColor=inherit;" vertex="1" parent="U-Sf9MAT8RMJsGlsqO_k-119">
          <mxGeometry y="52" width="160" height="8" as="geometry" />
        </mxCell>
        <mxCell id="U-Sf9MAT8RMJsGlsqO_k-131" style="edgeStyle=orthogonalEdgeStyle;rounded=0;orthogonalLoop=1;jettySize=auto;html=1;entryX=0.5;entryY=1;entryDx=0;entryDy=0;endArrow=diamondThin;endFill=1;" edge="1" parent="1" source="U-Sf9MAT8RMJsGlsqO_k-124" target="U-Sf9MAT8RMJsGlsqO_k-106">
          <mxGeometry relative="1" as="geometry" />
        </mxCell>
        <mxCell id="U-Sf9MAT8RMJsGlsqO_k-124" value="ItemList" style="swimlane;fontStyle=1;align=center;verticalAlign=top;childLayout=stackLayout;horizontal=1;startSize=26;horizontalStack=0;resizeParent=1;resizeParentMax=0;resizeLast=0;collapsible=1;marginBottom=0;whiteSpace=wrap;html=1;" vertex="1" parent="1">
          <mxGeometry x="320" y="481" width="160" height="60" as="geometry" />
        </mxCell>
        <mxCell id="brpPsIEIQ0xfQox0xX0i-2" value="+ items: Item[]" style="text;strokeColor=none;fillColor=none;align=left;verticalAlign=top;spacingLeft=4;spacingRight=4;overflow=hidden;rotatable=0;points=[[0,0.5],[1,0.5]];portConstraint=eastwest;whiteSpace=wrap;html=1;" parent="U-Sf9MAT8RMJsGlsqO_k-124" vertex="1">
          <mxGeometry y="26" width="160" height="26" as="geometry" />
        </mxCell>
        <mxCell id="U-Sf9MAT8RMJsGlsqO_k-126" value="" style="line;strokeWidth=1;fillColor=none;align=left;verticalAlign=middle;spacingTop=-1;spacingLeft=3;spacingRight=3;rotatable=0;labelPosition=right;points=[];portConstraint=eastwest;strokeColor=inherit;" vertex="1" parent="U-Sf9MAT8RMJsGlsqO_k-124">
          <mxGeometry y="52" width="160" height="8" as="geometry" />
        </mxCell>
        <mxCell id="U-Sf9MAT8RMJsGlsqO_k-140" style="edgeStyle=orthogonalEdgeStyle;rounded=0;orthogonalLoop=1;jettySize=auto;html=1;entryX=0.5;entryY=1;entryDx=0;entryDy=0;endArrow=diamondThin;endFill=0;" edge="1" parent="1" source="U-Sf9MAT8RMJsGlsqO_k-104" target="U-Sf9MAT8RMJsGlsqO_k-11">
          <mxGeometry relative="1" as="geometry" />
        </mxCell>
        <mxCell id="U-Sf9MAT8RMJsGlsqO_k-141" style="edgeStyle=orthogonalEdgeStyle;rounded=0;orthogonalLoop=1;jettySize=auto;html=1;exitX=0;exitY=0.5;exitDx=0;exitDy=0;entryX=0.5;entryY=1;entryDx=0;entryDy=0;endArrow=diamondThin;endFill=0;" edge="1" parent="1" target="U-Sf9MAT8RMJsGlsqO_k-16">
          <mxGeometry relative="1" as="geometry">
            <mxPoint x="720" y="945" as="sourcePoint" />
          </mxGeometry>
        </mxCell>
        <mxCell id="U-Sf9MAT8RMJsGlsqO_k-152" value="Guest" style="swimlane;fontStyle=1;align=center;verticalAlign=top;childLayout=stackLayout;horizontal=1;startSize=26;horizontalStack=0;resizeParent=1;resizeParentMax=0;resizeLast=0;collapsible=1;marginBottom=0;whiteSpace=wrap;html=1;" vertex="1" parent="1">
          <mxGeometry x="175" y="-200" width="160" height="112" as="geometry" />
        </mxCell>
        <mxCell id="U-Sf9MAT8RMJsGlsqO_k-154" value="" style="line;strokeWidth=1;fillColor=none;align=left;verticalAlign=middle;spacingTop=-1;spacingLeft=3;spacingRight=3;rotatable=0;labelPosition=right;points=[];portConstraint=eastwest;strokeColor=inherit;" vertex="1" parent="U-Sf9MAT8RMJsGlsqO_k-152">
          <mxGeometry y="26" width="160" height="8" as="geometry" />
        </mxCell>
        <mxCell id="U-Sf9MAT8RMJsGlsqO_k-155" value="- viewRestaurants(): void" style="text;strokeColor=none;fillColor=none;align=left;verticalAlign=top;spacingLeft=4;spacingRight=4;overflow=hidden;rotatable=0;points=[[0,0.5],[1,0.5]];portConstraint=eastwest;whiteSpace=wrap;html=1;" vertex="1" parent="U-Sf9MAT8RMJsGlsqO_k-152">
          <mxGeometry y="34" width="160" height="26" as="geometry" />
        </mxCell>
        <mxCell id="U-Sf9MAT8RMJsGlsqO_k-160" value="- register(): void" style="text;strokeColor=none;fillColor=none;align=left;verticalAlign=top;spacingLeft=4;spacingRight=4;overflow=hidden;rotatable=0;points=[[0,0.5],[1,0.5]];portConstraint=eastwest;whiteSpace=wrap;html=1;" vertex="1" parent="U-Sf9MAT8RMJsGlsqO_k-152">
          <mxGeometry y="60" width="160" height="26" as="geometry" />
        </mxCell>
        <mxCell id="U-Sf9MAT8RMJsGlsqO_k-161" value="- logIn(): void" style="text;strokeColor=none;fillColor=none;align=left;verticalAlign=top;spacingLeft=4;spacingRight=4;overflow=hidden;rotatable=0;points=[[0,0.5],[1,0.5]];portConstraint=eastwest;whiteSpace=wrap;html=1;" vertex="1" parent="U-Sf9MAT8RMJsGlsqO_k-152">
          <mxGeometry y="86" width="160" height="26" as="geometry" />
        </mxCell>
        <mxCell id="U-Sf9MAT8RMJsGlsqO_k-167" style="edgeStyle=orthogonalEdgeStyle;rounded=0;orthogonalLoop=1;jettySize=auto;html=1;exitX=1;exitY=0.25;exitDx=0;exitDy=0;entryX=-0.01;entryY=0.118;entryDx=0;entryDy=0;entryPerimeter=0;" edge="1" parent="1" source="U-Sf9MAT8RMJsGlsqO_k-106" target="U-Sf9MAT8RMJsGlsqO_k-5">
          <mxGeometry relative="1" as="geometry">
            <Array as="points">
              <mxPoint x="570" y="368" />
              <mxPoint x="570" y="321" />
            </Array>
          </mxGeometry>
        </mxCell>
        <mxCell id="U-Sf9MAT8RMJsGlsqO_k-181" style="edgeStyle=orthogonalEdgeStyle;rounded=0;orthogonalLoop=1;jettySize=auto;html=1;exitX=0;exitY=0.5;exitDx=0;exitDy=0;entryX=1;entryY=0.5;entryDx=0;entryDy=0;" edge="1" parent="1" source="U-Sf9MAT8RMJsGlsqO_k-64" target="U-Sf9MAT8RMJsGlsqO_k-174">
          <mxGeometry relative="1" as="geometry" />
        </mxCell>
        <mxCell id="U-Sf9MAT8RMJsGlsqO_k-182" style="edgeStyle=orthogonalEdgeStyle;rounded=0;orthogonalLoop=1;jettySize=auto;html=1;exitX=0;exitY=0.5;exitDx=0;exitDy=0;entryX=1;entryY=0.5;entryDx=0;entryDy=0;" edge="1" parent="1" source="U-Sf9MAT8RMJsGlsqO_k-78" target="U-Sf9MAT8RMJsGlsqO_k-176">
          <mxGeometry relative="1" as="geometry">
            <Array as="points">
              <mxPoint x="740" y="-335" />
              <mxPoint x="740" y="-420" />
              <mxPoint x="540" y="-420" />
              <mxPoint x="540" y="-335" />
            </Array>
          </mxGeometry>
        </mxCell>
        <mxCell id="U-Sf9MAT8RMJsGlsqO_k-199" style="edgeStyle=orthogonalEdgeStyle;rounded=0;orthogonalLoop=1;jettySize=auto;html=1;exitX=0;exitY=0.5;exitDx=0;exitDy=0;entryX=0.5;entryY=1;entryDx=0;entryDy=0;" edge="1" parent="1" target="U-Sf9MAT8RMJsGlsqO_k-119">
          <mxGeometry relative="1" as="geometry">
            <mxPoint x="565" y="185" as="sourcePoint" />
          </mxGeometry>
        </mxCell>
        <mxCell id="U-Sf9MAT8RMJsGlsqO_k-201" style="edgeStyle=orthogonalEdgeStyle;rounded=0;orthogonalLoop=1;jettySize=auto;html=1;exitX=1;exitY=0.5;exitDx=0;exitDy=0;entryX=0.25;entryY=1;entryDx=0;entryDy=0;" edge="1" parent="1" source="U-Sf9MAT8RMJsGlsqO_k-168" target="U-Sf9MAT8RMJsGlsqO_k-1">
          <mxGeometry relative="1" as="geometry" />
        </mxCell>
      </root>
    </mxGraphModel>
  </diagram>
</mxfile>
